<svg xmlns="http://www.w3.org/2000/svg" xmlns:xlink="http://www.w3.org/1999/xlink" version="1.1" x="0px" y="0px" viewBox="0 0 48 48" style="enable-background:new 0 0 48 48;" xml:space="preserve"><g><path d="M6.6,27.5c1.6,8.1,8.7,14,17.1,14c6.5,0,12.4-3.6,15.4-9.3c4-0.5,8.5-1.7,8.9-4.6c0.4-3-3.6-5.3-7.3-6.9   c-1.6-8.2-8.7-14-17-14C17,6.7,11,10.5,8,16.4c-4.9,0.7-7.7,2.3-8,4.5C-0.3,23.2,2,25.4,6.6,27.5z M23.7,39.5   c-7,0-12.9-4.6-14.8-11.1c0.6,0.2,1.2,0.4,1.9,0.6c0,0.2-0.1,0.4-0.1,0.6c0,2.8,2.2,5,5,5c2.1,0,4-1.4,4.7-3.3   c8,1.3,12.2,1.3,16.3,1C33.8,36.8,29,39.5,23.7,39.5z M12.7,29.6c0-1.7,1.4-3,3-3s3,1.4,3,3s-1.4,3-3,3S12.7,31.3,12.7,29.6z    M41,23c3.8,1.8,5.1,3.4,5,4.3c-0.1,0.9-1.8,2.1-6,2.8C41.3,26.7,41,23.4,41,23z M9.6,17.7c2.5-5.5,8-9.1,14-9.1   c7.6,0,14,5.4,15.2,12.9c0.1,0.8,0.7,4.4-1.1,8.7c-7.8,0.7-16.2-0.8-17.1-0.9c-0.1-2.7-2.3-4.8-5-4.8c-1.9,0-3.5,1-4.3,2.5   c-1.1-0.3-2-0.7-2.9-1.1C7.9,22.4,8.7,19.7,9.6,17.7z M7.1,18.6c-0.6,1.8-1.1,4.1-0.9,6.5C3,23.5,1.9,22,2,21.2   C2.1,20.4,3.6,19.3,7.1,18.6z"/><path d="M46.5,38.3l-3.3-0.5l-1.5-3c-0.3-0.7-1.5-0.7-1.8,0l-1.5,3l-3.3,0.5c-1.1,0.2-0.9,1.3-0.6,1.7l2.4,2.3l-0.6,3.3   c-0.1,0.6,0.4,1.5,1.5,1.1l3-1.6l3,1.6c1.1,0.5,1.6-0.6,1.5-1.1l-0.6-3.3l2.4-2.3C47.8,39.3,47.1,38.3,46.5,38.3z M42.9,41.2   c-0.2,0.2-0.3,0.6-0.3,0.9l0.3,1.8l-1.6-0.9c-0.3-0.2-0.6-0.2-0.9,0l-1.6,0.9l0.3-1.8c0.1-0.3-0.1-0.7-0.3-0.9l-1.3-1.3l1.8-0.3   c0.3,0,0.6-0.3,0.8-0.5l0.8-1.6l0.8,1.6c0.1,0.3,0.4,0.5,0.8,0.5l1.8,0.3L42.9,41.2z"/><path d="M11.2,4.4L8.7,4L7.6,1.8c-0.3-0.7-1.5-0.7-1.8,0L4.7,4L2.2,4.4c-1.1,0.2-1,1.4-0.6,1.7l1.8,1.8L3,10.3   c-0.1,0.5,0.4,1.5,1.5,1.1l2.2-1.2l2.2,1.2c0.4,0.3,1.5,0.1,1.5-1.1L9.9,7.8l1.8-1.8C12.5,5.2,11.7,4.4,11.2,4.4z M8.1,6.8   C7.9,7,7.8,7.3,7.9,7.6l0.2,1L7.1,8.2C7,8.1,6.8,8,6.7,8s-0.3,0-0.5,0.1L5.3,8.6l0.2-1C5.5,7.3,5.4,7,5.2,6.8L4.5,6.1l1-0.1   c0.3,0,0.6-0.3,0.8-0.5l0.4-0.9l0.4,0.9c0.1,0.3,0.4,0.5,0.8,0.5l1,0.1L8.1,6.8z"/></g><text x="0" y="63" fill="#000000" font-size="5px" font-weight="bold" font-family="'Helvetica Neue', Helvetica, Arial-Unicode, Arial, Sans-serif">Created by Vectors Market</text><text x="0" y="68" fill="#000000" font-size="5px" font-weight="bold" font-family="'Helvetica Neue', Helvetica, Arial-Unicode, Arial, Sans-serif">from the Noun Project</text></svg>
